<svg width="94" height="34" viewBox="0 0 94 34" fill="none" xmlns="http://www.w3.org/2000/svg">
<rect x="4.67871" y="12.3801" width="29.8749" height="2.88163" rx="0.940941" fill="#81BF7C"/>
<rect x="4.67871" y="20.1429" width="29.8749" height="2.88163" rx="0.940941" fill="#81BF7C"/>
<rect x="4.56152" y="5.08789" width="8.76252" height="3.17568" rx="0.940941" fill="#81BF7C"/>
<rect x="18.6167" y="5.08789" width="15.9372" height="3.17568" rx="0.940941" fill="#81BF7C"/>
<path fill-rule="evenodd" clip-rule="evenodd" d="M37.2575 0.551758H1.82522C1.30555 0.551758 0.884277 0.973032 0.884277 1.4927V27.6626C0.884277 28.1823 1.30555 28.6036 1.82522 28.6036H17.7036C18.2233 28.6036 18.6445 29.0248 18.6445 29.5445V30.5443C18.6445 31.0639 18.2233 31.4852 17.7036 31.4852H14.8514C14.3479 31.4852 13.9398 31.8933 13.9398 32.3967C13.9398 32.9002 14.3479 33.3083 14.8514 33.3083H24.0844C24.5878 33.3083 24.9959 32.9002 24.9959 32.3967C24.9959 31.8933 24.5878 31.4852 24.0844 31.4852H21.732C21.2123 31.4852 20.7911 31.0639 20.7911 30.5443V29.5445C20.7911 29.0248 21.2123 28.6036 21.732 28.6036H37.2575C37.7772 28.6036 38.1985 28.1823 38.1985 27.6626V1.4927C38.1985 0.973032 37.7772 0.551758 37.2575 0.551758ZM3.50127 27.1039C2.9816 27.1039 2.56033 26.6827 2.56033 26.163V3.16875C2.56033 2.64908 2.9816 2.22781 3.50127 2.22781H35.5815C36.1012 2.22781 36.5224 2.64908 36.5224 3.16875V26.163C36.5224 26.6827 36.1012 27.1039 35.5815 27.1039H3.50127Z" fill="#0F2A1D"/>
<path d="M1.82522 0.551758H37.2575M1.82522 0.551758C1.30555 0.551758 0.884277 0.973032 0.884277 1.4927M1.82522 0.551758V0.551758C1.30555 0.551758 0.884277 0.973032 0.884277 1.4927V1.4927M37.2575 0.551758C37.7772 0.551758 38.1985 0.973032 38.1985 1.4927M37.2575 0.551758V0.551758C37.7772 0.551758 38.1985 0.973032 38.1985 1.4927V1.4927M38.1985 1.4927V27.6626M38.1985 27.6626C38.1985 28.1823 37.7772 28.6036 37.2575 28.6036M38.1985 27.6626V27.6626C38.1985 28.1823 37.7772 28.6036 37.2575 28.6036V28.6036M37.2575 28.6036H21.732M21.732 28.6036C21.2123 28.6036 20.7911 29.0248 20.7911 29.5445M21.732 28.6036V28.6036C21.2123 28.6036 20.7911 29.0248 20.7911 29.5445V29.5445M20.7911 29.5445V30.5443M20.7911 30.5443C20.7911 31.0639 21.2123 31.4852 21.732 31.4852M20.7911 30.5443V30.5443C20.7911 31.0639 21.2123 31.4852 21.732 31.4852V31.4852M21.732 31.4852H24.0844M24.0844 31.4852C24.5878 31.4852 24.9959 31.8933 24.9959 32.3967M24.0844 31.4852V31.4852C24.5878 31.4852 24.9959 31.8933 24.9959 32.3967V32.3967M24.9959 32.3967C24.9959 32.9002 24.5878 33.3083 24.0844 33.3083M24.9959 32.3967V32.3967C24.9959 32.9002 24.5878 33.3083 24.0844 33.3083V33.3083M24.0844 33.3083H14.8514M14.8514 33.3083C14.3479 33.3083 13.9398 32.9002 13.9398 32.3967M14.8514 33.3083V33.3083C14.3479 33.3083 13.9398 32.9002 13.9398 32.3967V32.3967M13.9398 32.3967C13.9398 31.8933 14.3479 31.4852 14.8514 31.4852M13.9398 32.3967V32.3967C13.9398 31.8933 14.3479 31.4852 14.8514 31.4852V31.4852M14.8514 31.4852H17.7036M17.7036 31.4852C18.2233 31.4852 18.6445 31.0639 18.6445 30.5443M17.7036 31.4852V31.4852C18.2233 31.4852 18.6445 31.0639 18.6445 30.5443V30.5443M18.6445 30.5443V29.5445M18.6445 29.5445C18.6445 29.0248 18.2233 28.6036 17.7036 28.6036M18.6445 29.5445V29.5445C18.6445 29.0248 18.2233 28.6036 17.7036 28.6036V28.6036M17.7036 28.6036H1.82522M1.82522 28.6036C1.30555 28.6036 0.884277 28.1823 0.884277 27.6626M1.82522 28.6036V28.6036C1.30555 28.6036 0.884277 28.1823 0.884277 27.6626V27.6626M0.884277 27.6626V1.4927M36.5224 3.16875V26.163C36.5224 26.6827 36.1012 27.1039 35.5815 27.1039H3.50127C2.9816 27.1039 2.56033 26.6827 2.56033 26.163V3.16875C2.56033 2.64908 2.9816 2.22781 3.50127 2.22781H35.5815C36.1012 2.22781 36.5224 2.64908 36.5224 3.16875Z" stroke="white" stroke-width="0.235235"/>
<path d="M22.8266 23.865C22.8682 23.3904 23.0181 22.92 23.2762 22.4537C23.5343 21.9875 23.8299 21.6128 24.163 21.3297C24.879 21.7793 25.6783 22.1706 26.5609 22.5037C27.4518 22.8284 28.3344 22.9908 29.2086 22.9908C30.0662 22.9908 30.7115 22.7951 31.1445 22.4038C31.5774 22.0124 31.7939 21.5462 31.7939 21.005C31.7939 20.5803 31.6524 20.1723 31.3693 19.781C31.0945 19.3814 30.5991 19.0317 29.8831 18.7319L26.8731 17.483C25.8324 17.0417 24.9872 16.4672 24.3378 15.7595C23.6884 15.0517 23.3636 14.1317 23.3636 12.9993C23.3636 12.0252 23.6176 11.1592 24.1255 10.4016C24.6334 9.64387 25.3286 9.04855 26.2112 8.61559C27.1021 8.18263 28.1096 7.96614 29.2336 7.96614C30.341 7.96614 31.3859 8.11185 32.3684 8.40327C33.3509 8.69469 34.1669 9.00275 34.8163 9.32748C34.7913 9.8104 34.6748 10.2808 34.4666 10.7388C34.2668 11.1967 33.9962 11.5755 33.6548 11.8753C33.0137 11.5672 32.2852 11.2925 31.4692 11.051C30.6532 10.8095 29.9164 10.6888 29.2586 10.6888C28.4426 10.6888 27.8265 10.8845 27.4102 11.2758C27.0022 11.6588 26.7982 12.0918 26.7982 12.5747C26.7982 13.0077 26.9439 13.374 27.2353 13.6738C27.5267 13.9652 27.9639 14.2358 28.5467 14.4856L31.5816 15.7345C32.3393 16.0509 32.997 16.4422 33.5549 16.9085C34.1211 17.3747 34.5582 17.9159 34.8663 18.5321C35.1827 19.1399 35.3409 19.806 35.3409 20.5304C35.3409 21.5129 35.1036 22.3954 34.629 23.1781C34.1627 23.9608 33.4592 24.5811 32.5183 25.039C31.5774 25.497 30.3993 25.7259 28.9838 25.7259C27.9597 25.7259 26.8939 25.5636 25.7866 25.2388C24.6875 24.9141 23.7009 24.4562 22.8266 23.865Z" fill="black"/>
<path d="M47.7862 18.3638C47.7862 19.3879 47.4789 20.1822 46.8645 20.7468C46.255 21.3063 45.3807 21.586 44.2417 21.586C43.1077 21.586 42.2334 21.3063 41.619 20.7468C41.0045 20.1822 40.6973 19.3879 40.6973 18.3638V13.1708L40.7872 13.0808H41.5141C41.9037 13.0808 42.196 13.1782 42.3908 13.3731C42.5856 13.5679 42.6831 13.8926 42.6831 14.3472V18.3638C42.6831 18.8834 42.8055 19.288 43.0502 19.5778C43.3 19.8675 43.6972 20.0124 44.2417 20.0124C44.7962 20.0124 45.1934 19.8675 45.4332 19.5778C45.673 19.288 45.7929 18.8834 45.7929 18.3638V13.1558C45.9578 13.1258 46.1276 13.1058 46.3025 13.0958C46.4773 13.0858 46.6322 13.0808 46.7671 13.0808C46.8919 13.0808 47.0543 13.0883 47.2541 13.1033C47.454 13.1133 47.6313 13.1333 47.7862 13.1633V18.3638ZM56.7092 15.8984C56.7092 16.5229 56.5693 17.0424 56.2895 17.4571C56.0098 17.8717 55.6226 18.1815 55.128 18.3863C54.6384 18.5861 54.0789 18.686 53.4495 18.686C53.3495 18.686 53.1972 18.686 52.9923 18.686C52.7925 18.686 52.5852 18.686 52.3704 18.686C52.1556 18.686 51.9732 18.686 51.8233 18.686C51.6785 18.686 51.606 18.686 51.606 18.686V17.2248C51.7359 17.2148 51.9158 17.2098 52.1456 17.2098C52.3804 17.2048 52.6077 17.1998 52.8275 17.1948C53.0473 17.1898 53.2072 17.1873 53.3071 17.1873C53.6868 17.1873 53.974 17.1199 54.1688 16.985C54.3687 16.8451 54.5011 16.6753 54.566 16.4754C54.6359 16.2706 54.6709 16.0733 54.6709 15.8834C54.6709 15.7036 54.6359 15.5137 54.566 15.3139C54.5011 15.1141 54.3687 14.9442 54.1688 14.8044C53.974 14.6645 53.6868 14.5945 53.3071 14.5945C53.1572 14.5945 53.0198 14.5945 52.8949 14.5945C52.77 14.5895 52.6102 14.5845 52.4153 14.5795V21.3762C52.2505 21.4062 52.0806 21.4262 51.9058 21.4362C51.7309 21.4462 51.5761 21.4512 51.4412 21.4512C51.3163 21.4512 51.1539 21.4462 50.9541 21.4362C50.7593 21.4262 50.5844 21.4062 50.4295 21.3762V13.2307L50.5045 13.1483C50.9341 13.1383 51.4062 13.1283 51.9208 13.1183C52.4403 13.1033 52.9499 13.0958 53.4495 13.0958C54.0789 13.0958 54.6384 13.1932 55.128 13.3881C55.6226 13.5829 56.0098 13.8876 56.2895 14.3023C56.5693 14.7169 56.7092 15.249 56.7092 15.8984ZM64.989 15.8984C64.989 16.5229 64.8491 17.0424 64.5693 17.4571C64.2896 17.8717 63.9024 18.1815 63.4078 18.3863C62.9183 18.5861 62.3587 18.686 61.7293 18.686C61.6294 18.686 61.477 18.686 61.2722 18.686C61.0723 18.686 60.865 18.686 60.6502 18.686C60.4354 18.686 60.253 18.686 60.1032 18.686C59.9583 18.686 59.8859 18.686 59.8859 18.686V17.2248C60.0157 17.2148 60.1956 17.2098 60.4254 17.2098C60.6602 17.2048 60.8875 17.1998 61.1073 17.1948C61.3271 17.1898 61.487 17.1873 61.5869 17.1873C61.9666 17.1873 62.2538 17.1199 62.4487 16.985C62.6485 16.8451 62.7809 16.6753 62.8458 16.4754C62.9158 16.2706 62.9507 16.0733 62.9507 15.8834C62.9507 15.7036 62.9158 15.5137 62.8458 15.3139C62.7809 15.1141 62.6485 14.9442 62.4487 14.8044C62.2538 14.6645 61.9666 14.5945 61.5869 14.5945C61.437 14.5945 61.2996 14.5945 61.1747 14.5945C61.0499 14.5895 60.89 14.5845 60.6952 14.5795V21.3762C60.5303 21.4062 60.3604 21.4262 60.1856 21.4362C60.0107 21.4462 59.8559 21.4512 59.721 21.4512C59.5961 21.4512 59.4337 21.4462 59.2339 21.4362C59.0391 21.4262 58.8642 21.4062 58.7094 21.3762V13.2307L58.7843 13.1483C59.2139 13.1383 59.686 13.1283 60.2006 13.1183C60.7201 13.1033 61.2297 13.0958 61.7293 13.0958C62.3587 13.0958 62.9183 13.1932 63.4078 13.3881C63.9024 13.5829 64.2896 13.8876 64.5693 14.3023C64.8491 14.7169 64.989 15.249 64.989 15.8984ZM68.96 21.4062H68.1132C67.7585 21.4062 67.4788 21.3038 67.2739 21.099C67.0691 20.8941 66.9667 20.6144 66.9667 20.2597V13.1782L67.0491 13.0958H67.8135C68.2031 13.0958 68.4904 13.1932 68.6752 13.3881C68.8651 13.5779 68.96 13.8926 68.96 14.3323V21.4062ZM72.5869 19.7501C72.5669 20.3646 72.462 20.7942 72.2721 21.039C72.0823 21.2838 71.7476 21.4062 71.268 21.4062H68.1132L67.3039 20.0574C67.8035 19.9524 68.323 19.875 68.8626 19.8251C69.4021 19.7751 69.8742 19.7501 70.2789 19.7501H72.5869ZM74.5893 13.1558C74.7442 13.1258 74.919 13.1058 75.1139 13.0958C75.3137 13.0858 75.476 13.0808 75.6009 13.0808C75.7358 13.0808 75.8907 13.0858 76.0655 13.0958C76.2454 13.1058 76.4177 13.1258 76.5826 13.1558V21.3762C76.4177 21.4062 76.2454 21.4262 76.0655 21.4362C75.8907 21.4462 75.7358 21.4512 75.6009 21.4512C75.476 21.4512 75.3137 21.4462 75.1139 21.4362C74.919 21.4262 74.7442 21.4062 74.5893 21.3762V13.1558ZM79.4069 13.2382L79.4818 13.1558H81.3477V14.7444C81.3477 14.8843 81.3502 15.0142 81.3552 15.1341C81.3602 15.249 81.3627 15.3864 81.3627 15.5462V19.0157C81.3627 19.1706 81.3602 19.308 81.3552 19.4279C81.3502 19.5428 81.3477 19.6702 81.3477 19.8101V21.3987H80.5534C80.1987 21.3987 79.9189 21.2963 79.7141 21.0915C79.5093 20.8816 79.4069 20.6019 79.4069 20.2522V13.2382ZM84.3901 16.438C84.43 16.5579 84.4575 16.6927 84.4725 16.8426C84.4875 16.9875 84.495 17.1099 84.495 17.2098C84.495 17.3247 84.4875 17.4571 84.4725 17.607C84.4575 17.7518 84.43 17.8842 84.3901 18.0041H82.2619C82.152 18.0041 81.9971 18.0041 81.7973 18.0041C81.5975 18.0041 81.3951 18.0041 81.1903 18.0041C80.9855 17.9991 80.8131 17.9941 80.6733 17.9891V16.4679C80.8131 16.4629 80.9855 16.4579 81.1903 16.4529C81.3951 16.4479 81.5975 16.4454 81.7973 16.4454C81.9971 16.4405 82.152 16.438 82.2619 16.438H84.3901ZM85.1769 13.1558C85.2019 13.3006 85.2169 13.438 85.2219 13.5679C85.2269 13.6978 85.2294 13.8202 85.2294 13.9351C85.2294 14.05 85.2169 14.1799 85.1919 14.3248C85.1719 14.4696 85.1344 14.617 85.0795 14.7669H82.2619C82.152 14.7669 81.9971 14.7669 81.7973 14.7669C81.5975 14.7619 81.3951 14.7569 81.1903 14.7519C80.9855 14.7469 80.8131 14.7419 80.6733 14.7369V13.1558H85.1769ZM85.4317 19.7801C85.4317 20.3846 85.3368 20.8067 85.1469 21.0465C84.9621 21.2813 84.6449 21.3987 84.1952 21.3987H80.6957V19.855C80.9305 19.845 81.1279 19.835 81.2877 19.8251C81.4526 19.8101 81.6125 19.8001 81.7673 19.7951C81.9222 19.7851 82.107 19.7801 82.3219 19.7801H85.4317ZM86.826 20.7318C86.826 20.5669 86.8584 20.3871 86.9234 20.1922C86.9883 19.9974 87.0757 19.8151 87.1857 19.6452C87.3006 19.4754 87.4254 19.348 87.5603 19.263C87.915 19.4629 88.3147 19.6402 88.7593 19.7951C89.2089 19.9499 89.671 20.0249 90.1456 20.0199C90.3754 20.0199 90.5827 19.9849 90.7676 19.915C90.9524 19.845 91.0998 19.7476 91.2097 19.6227C91.3196 19.4928 91.3746 19.338 91.3746 19.1581C91.3746 18.9683 91.3021 18.7984 91.1572 18.6486C91.0124 18.4987 90.7851 18.3688 90.4753 18.2589L89.149 17.7493C88.7593 17.6144 88.4046 17.4471 88.0849 17.2473C87.7702 17.0424 87.5204 16.7951 87.3355 16.5054C87.1507 16.2156 87.0583 15.8734 87.0583 15.4788C87.0583 14.9942 87.1857 14.5621 87.4404 14.1824C87.6952 13.7977 88.0574 13.498 88.527 13.2832C89.0016 13.0633 89.5661 12.9509 90.2206 12.9459C90.7701 12.9459 91.3146 13.0109 91.8542 13.1408C92.3987 13.2707 92.8558 13.418 93.2255 13.5829C93.2255 13.8677 93.1655 14.1499 93.0456 14.4297C92.9257 14.7044 92.7609 14.9243 92.5511 15.0891C92.1864 14.9243 91.7892 14.7894 91.3596 14.6845C90.9349 14.5746 90.5453 14.5196 90.1906 14.5196C89.8609 14.5246 89.6036 14.5995 89.4187 14.7444C89.2339 14.8893 89.1415 15.0716 89.1415 15.2914C89.1415 15.4813 89.2189 15.6261 89.3738 15.7261C89.5336 15.826 89.746 15.9234 90.0107 16.0183L91.3146 16.5129C91.9641 16.7477 92.4911 17.0724 92.8958 17.4871C93.3004 17.9017 93.5027 18.4163 93.5027 19.0307C93.5027 19.5603 93.3604 20.0174 93.0756 20.4021C92.7908 20.7817 92.3987 21.074 91.8991 21.2788C91.3995 21.4786 90.8225 21.581 90.1681 21.586C89.4187 21.591 88.7543 21.5011 88.1748 21.3163C87.5953 21.1314 87.1457 20.9366 86.826 20.7318Z" fill="black"/>
</svg>
